<svg xmlns="http://www.w3.org/2000/svg" xmlns:xlink="http://www.w3.org/1999/xlink" width="190" zoomAndPan="magnify" viewBox="0 0 142.5 30.000001" height="40" preserveAspectRatio="xMidYMid meet" version="1.0"><defs><g/><clipPath id="205890e77d"><path d="M 8.8125 6.558594 L 59.621094 6.558594 L 59.621094 26.15625 L 8.8125 26.15625 Z M 8.8125 6.558594 " clip-rule="nonzero"/></clipPath></defs><g clip-path="url(#205890e77d)"><path fill="#7faf30" d="M 59.800781 6.714844 C 59.546875 7.417969 59.21875 8.089844 58.84375 8.742188 L 58.445312 8.507812 C 58.8125 7.886719 59.117188 7.234375 59.363281 6.5625 Z M 56.363281 11.171875 L 56.691406 11.496094 C 57.222656 10.976562 57.710938 10.40625 58.148438 9.804688 L 57.773438 9.527344 C 57.34375 10.121094 56.875 10.660156 56.363281 11.171875 Z M 53.691406 13.292969 L 53.949219 13.679688 C 54.570312 13.28125 55.171875 12.84375 55.742188 12.363281 L 55.445312 12.007812 C 54.898438 12.476562 54.304688 12.894531 53.691406 13.292969 Z M 50.675781 14.871094 L 50.859375 15.300781 C 51.542969 15.015625 52.214844 14.6875 52.855469 14.332031 L 52.632812 13.921875 C 51.988281 14.269531 51.335938 14.585938 50.675781 14.871094 Z M 47.433594 15.972656 L 47.554688 16.421875 C 48.269531 16.238281 48.980469 16.015625 49.675781 15.757812 L 49.523438 15.320312 C 48.828125 15.574219 48.136719 15.789062 47.433594 15.972656 Z M 44.066406 16.617188 L 44.128906 17.074219 C 44.863281 16.984375 45.597656 16.859375 46.320312 16.707031 L 46.230469 16.25 C 45.503906 16.410156 44.789062 16.535156 44.066406 16.617188 Z M 40.640625 16.902344 L 40.660156 17.359375 C 41.394531 17.328125 42.128906 17.277344 42.863281 17.207031 L 42.824219 16.75 C 42.097656 16.820312 41.363281 16.871094 40.640625 16.902344 Z M 38.285156 16.960938 L 37.183594 16.960938 L 37.183594 17.421875 L 38.285156 17.421875 C 38.652344 17.421875 39.019531 17.410156 39.386719 17.402344 L 39.375 16.941406 C 39.019531 16.953125 38.652344 16.960938 38.285156 16.960938 Z M 33.726562 17.371094 L 35.929688 17.410156 L 35.9375 16.953125 L 33.738281 16.910156 Z M 30.269531 17.328125 C 31.003906 17.328125 31.738281 17.339844 32.460938 17.351562 L 32.472656 16.890625 C 31.738281 16.882812 31.003906 16.871094 30.269531 16.871094 Z M 26.800781 16.953125 L 26.824219 17.410156 C 27.558594 17.371094 28.28125 17.351562 29.015625 17.339844 L 29.003906 16.882812 C 28.269531 16.890625 27.535156 16.910156 26.800781 16.953125 Z M 23.335938 17.277344 L 23.40625 17.738281 C 24.128906 17.636719 24.855469 17.554688 25.578125 17.492188 L 25.539062 17.035156 C 24.804688 17.085938 24.070312 17.167969 23.335938 17.277344 Z M 19.929688 17.980469 L 20.050781 18.429688 C 20.753906 18.238281 21.457031 18.074219 22.171875 17.941406 L 22.082031 17.484375 C 21.367188 17.625 20.644531 17.789062 19.929688 17.980469 Z M 16.636719 19.132812 L 16.820312 19.5625 C 17.480469 19.277344 18.164062 19.011719 18.859375 18.789062 L 18.714844 18.347656 C 18.011719 18.582031 17.320312 18.839844 16.636719 19.132812 Z M 13.554688 20.808594 L 13.808594 21.195312 C 14.414062 20.796875 15.042969 20.429688 15.6875 20.101562 L 15.472656 19.683594 C 14.820312 20.023438 14.175781 20.390625 13.554688 20.808594 Z M 10.875 23.050781 L 11.210938 23.367188 C 11.710938 22.847656 12.238281 22.355469 12.8125 21.910156 L 12.527344 21.542969 C 11.945312 22.011719 11.394531 22.511719 10.875 23.050781 Z M 8.8125 25.894531 L 9.222656 26.121094 C 9.566406 25.488281 9.964844 24.886719 10.40625 24.316406 L 10.039062 24.03125 C 9.578125 24.609375 9.171875 25.242188 8.8125 25.894531 Z M 8.8125 25.894531 " fill-opacity="1" fill-rule="nonzero"/></g><g fill="#000000" fill-opacity="1"><g transform="translate(5.160973, 22.500002)"><g><path d="M 0.71875 -13.578125 L 0.71875 -16.890625 L 15 -16.890625 L 15 -13.578125 L 9.875 -13.578125 L 9.875 0 L 5.859375 0 L 5.859375 -13.578125 Z M 0.71875 -13.578125 "/></g></g></g><g fill="#000000" fill-opacity="1"><g transform="translate(20.881755, 22.500002)"><g><path d="M 1.28125 0 L 1.28125 -12.671875 L 5.1875 -12.671875 L 5.1875 -10.359375 L 5.328125 -10.359375 C 5.554688 -11.191406 5.929688 -11.8125 6.453125 -12.21875 C 6.972656 -12.632812 7.582031 -12.84375 8.28125 -12.84375 C 8.46875 -12.84375 8.660156 -12.828125 8.859375 -12.796875 C 9.054688 -12.773438 9.238281 -12.738281 9.40625 -12.6875 L 9.40625 -9.1875 C 9.21875 -9.25 8.96875 -9.300781 8.65625 -9.34375 C 8.34375 -9.382812 8.066406 -9.40625 7.828125 -9.40625 C 7.347656 -9.40625 6.914062 -9.296875 6.53125 -9.078125 C 6.15625 -8.867188 5.859375 -8.578125 5.640625 -8.203125 C 5.421875 -7.828125 5.3125 -7.382812 5.3125 -6.875 L 5.3125 0 Z M 1.28125 0 "/></g></g></g><g fill="#000000" fill-opacity="1"><g transform="translate(30.658812, 22.500002)"><g><path d="M 4.84375 0.21875 C 4.039062 0.21875 3.328125 0.0820312 2.703125 -0.1875 C 2.078125 -0.46875 1.582031 -0.882812 1.21875 -1.4375 C 0.863281 -1.988281 0.6875 -2.679688 0.6875 -3.515625 C 0.6875 -4.210938 0.804688 -4.800781 1.046875 -5.28125 C 1.296875 -5.769531 1.640625 -6.164062 2.078125 -6.46875 C 2.515625 -6.769531 3.015625 -7 3.578125 -7.15625 C 4.140625 -7.3125 4.742188 -7.421875 5.390625 -7.484375 C 6.109375 -7.546875 6.6875 -7.613281 7.125 -7.6875 C 7.570312 -7.757812 7.894531 -7.863281 8.09375 -8 C 8.289062 -8.144531 8.390625 -8.347656 8.390625 -8.609375 L 8.390625 -8.65625 C 8.390625 -9.070312 8.242188 -9.394531 7.953125 -9.625 C 7.660156 -9.863281 7.269531 -9.984375 6.78125 -9.984375 C 6.25 -9.984375 5.816406 -9.863281 5.484375 -9.625 C 5.160156 -9.394531 4.957031 -9.078125 4.875 -8.671875 L 1.15625 -8.8125 C 1.257812 -9.570312 1.539062 -10.253906 2 -10.859375 C 2.46875 -11.472656 3.101562 -11.953125 3.90625 -12.296875 C 4.707031 -12.648438 5.675781 -12.828125 6.8125 -12.828125 C 7.613281 -12.828125 8.351562 -12.734375 9.03125 -12.546875 C 9.71875 -12.359375 10.3125 -12.082031 10.8125 -11.71875 C 11.320312 -11.363281 11.71875 -10.921875 12 -10.390625 C 12.28125 -9.867188 12.421875 -9.273438 12.421875 -8.609375 L 12.421875 0 L 8.625 0 L 8.625 -1.765625 L 8.53125 -1.765625 C 8.300781 -1.335938 8.007812 -0.972656 7.65625 -0.671875 C 7.3125 -0.378906 6.90625 -0.15625 6.4375 0 C 5.96875 0.144531 5.4375 0.21875 4.84375 0.21875 Z M 6.09375 -2.421875 C 6.53125 -2.421875 6.921875 -2.507812 7.265625 -2.6875 C 7.617188 -2.863281 7.898438 -3.109375 8.109375 -3.421875 C 8.316406 -3.734375 8.421875 -4.09375 8.421875 -4.5 L 8.421875 -5.703125 C 8.304688 -5.640625 8.164062 -5.582031 8 -5.53125 C 7.84375 -5.488281 7.664062 -5.441406 7.46875 -5.390625 C 7.28125 -5.347656 7.082031 -5.3125 6.875 -5.28125 C 6.675781 -5.25 6.484375 -5.21875 6.296875 -5.1875 C 5.910156 -5.132812 5.582031 -5.039062 5.3125 -4.90625 C 5.050781 -4.78125 4.847656 -4.617188 4.703125 -4.421875 C 4.566406 -4.222656 4.5 -3.984375 4.5 -3.703125 C 4.5 -3.285156 4.648438 -2.96875 4.953125 -2.75 C 5.253906 -2.53125 5.632812 -2.421875 6.09375 -2.421875 Z M 6.09375 -2.421875 "/></g></g></g><g fill="#000000" fill-opacity="1"><g transform="translate(44.25272, 22.500002)"><g><path d="M 1.28125 0 L 1.28125 -12.671875 L 5.3125 -12.671875 L 5.3125 0 Z M 3.296875 -14.140625 C 2.734375 -14.140625 2.25 -14.328125 1.84375 -14.703125 C 1.4375 -15.078125 1.234375 -15.53125 1.234375 -16.0625 C 1.234375 -16.59375 1.4375 -17.046875 1.84375 -17.421875 C 2.25 -17.796875 2.734375 -17.984375 3.296875 -17.984375 C 3.867188 -17.984375 4.359375 -17.796875 4.765625 -17.421875 C 5.171875 -17.046875 5.375 -16.59375 5.375 -16.0625 C 5.375 -15.53125 5.171875 -15.078125 4.765625 -14.703125 C 4.359375 -14.328125 3.867188 -14.140625 3.296875 -14.140625 Z M 3.296875 -14.140625 "/></g></g></g><g fill="#000000" fill-opacity="1"><g transform="translate(50.839455, 22.500002)"><g><path d="M 5.3125 -16.890625 L 5.3125 0 L 1.28125 0 L 1.28125 -16.890625 Z M 5.3125 -16.890625 "/></g></g></g><g fill="#7faf30" fill-opacity="1"><g transform="translate(57.430378, 22.500002)"><g><path d="M 1.28125 0 L 1.28125 -16.890625 L 5.3125 -16.890625 L 5.3125 -10.5 L 5.390625 -10.5 C 5.554688 -10.882812 5.789062 -11.253906 6.09375 -11.609375 C 6.40625 -11.960938 6.796875 -12.253906 7.265625 -12.484375 C 7.742188 -12.710938 8.316406 -12.828125 8.984375 -12.828125 C 9.859375 -12.828125 10.675781 -12.59375 11.4375 -12.125 C 12.207031 -11.664062 12.828125 -10.957031 13.296875 -10 C 13.773438 -9.039062 14.015625 -7.816406 14.015625 -6.328125 C 14.015625 -4.890625 13.785156 -3.6875 13.328125 -2.71875 C 12.878906 -1.75 12.269531 -1.019531 11.5 -0.53125 C 10.738281 -0.0507812 9.890625 0.1875 8.953125 0.1875 C 8.316406 0.1875 7.765625 0.0820312 7.296875 -0.125 C 6.828125 -0.332031 6.429688 -0.609375 6.109375 -0.953125 C 5.796875 -1.296875 5.554688 -1.660156 5.390625 -2.046875 L 5.265625 -2.046875 L 5.265625 0 Z M 5.234375 -6.328125 C 5.234375 -5.648438 5.320312 -5.054688 5.5 -4.546875 C 5.6875 -4.046875 5.953125 -3.65625 6.296875 -3.375 C 6.648438 -3.09375 7.070312 -2.953125 7.5625 -2.953125 C 8.050781 -2.953125 8.46875 -3.09375 8.8125 -3.375 C 9.164062 -3.65625 9.429688 -4.046875 9.609375 -4.546875 C 9.785156 -5.054688 9.875 -5.648438 9.875 -6.328125 C 9.875 -7.015625 9.785156 -7.609375 9.609375 -8.109375 C 9.429688 -8.609375 9.171875 -8.992188 8.828125 -9.265625 C 8.484375 -9.546875 8.0625 -9.6875 7.5625 -9.6875 C 7.0625 -9.6875 6.640625 -9.550781 6.296875 -9.28125 C 5.953125 -9.007812 5.6875 -8.625 5.5 -8.125 C 5.320312 -7.625 5.234375 -7.023438 5.234375 -6.328125 Z M 5.234375 -6.328125 "/></g></g></g><g fill="#7faf30" fill-opacity="1"><g transform="translate(72.285577, 22.500002)"><g><path d="M 5.3125 -16.890625 L 5.3125 0 L 1.28125 0 L 1.28125 -16.890625 Z M 5.3125 -16.890625 "/></g></g></g><g fill="#7faf30" fill-opacity="1"><g transform="translate(78.872312, 22.500002)"><g><path d="M 4.84375 0.21875 C 4.039062 0.21875 3.328125 0.0820312 2.703125 -0.1875 C 2.078125 -0.46875 1.582031 -0.882812 1.21875 -1.4375 C 0.863281 -1.988281 0.6875 -2.679688 0.6875 -3.515625 C 0.6875 -4.210938 0.804688 -4.800781 1.046875 -5.28125 C 1.296875 -5.769531 1.640625 -6.164062 2.078125 -6.46875 C 2.515625 -6.769531 3.015625 -7 3.578125 -7.15625 C 4.140625 -7.3125 4.742188 -7.421875 5.390625 -7.484375 C 6.109375 -7.546875 6.6875 -7.613281 7.125 -7.6875 C 7.570312 -7.757812 7.894531 -7.863281 8.09375 -8 C 8.289062 -8.144531 8.390625 -8.347656 8.390625 -8.609375 L 8.390625 -8.65625 C 8.390625 -9.070312 8.242188 -9.394531 7.953125 -9.625 C 7.660156 -9.863281 7.269531 -9.984375 6.78125 -9.984375 C 6.25 -9.984375 5.816406 -9.863281 5.484375 -9.625 C 5.160156 -9.394531 4.957031 -9.078125 4.875 -8.671875 L 1.15625 -8.8125 C 1.257812 -9.570312 1.539062 -10.253906 2 -10.859375 C 2.46875 -11.472656 3.101562 -11.953125 3.90625 -12.296875 C 4.707031 -12.648438 5.675781 -12.828125 6.8125 -12.828125 C 7.613281 -12.828125 8.351562 -12.734375 9.03125 -12.546875 C 9.71875 -12.359375 10.3125 -12.082031 10.8125 -11.71875 C 11.320312 -11.363281 11.71875 -10.921875 12 -10.390625 C 12.28125 -9.867188 12.421875 -9.273438 12.421875 -8.609375 L 12.421875 0 L 8.625 0 L 8.625 -1.765625 L 8.53125 -1.765625 C 8.300781 -1.335938 8.007812 -0.972656 7.65625 -0.671875 C 7.3125 -0.378906 6.90625 -0.15625 6.4375 0 C 5.96875 0.144531 5.4375 0.21875 4.84375 0.21875 Z M 6.09375 -2.421875 C 6.53125 -2.421875 6.921875 -2.507812 7.265625 -2.6875 C 7.617188 -2.863281 7.898438 -3.109375 8.109375 -3.421875 C 8.316406 -3.734375 8.421875 -4.09375 8.421875 -4.5 L 8.421875 -5.703125 C 8.304688 -5.640625 8.164062 -5.582031 8 -5.53125 C 7.84375 -5.488281 7.664062 -5.441406 7.46875 -5.390625 C 7.28125 -5.347656 7.082031 -5.3125 6.875 -5.28125 C 6.675781 -5.25 6.484375 -5.21875 6.296875 -5.1875 C 5.910156 -5.132812 5.582031 -5.039062 5.3125 -4.90625 C 5.050781 -4.78125 4.847656 -4.617188 4.703125 -4.421875 C 4.566406 -4.222656 4.5 -3.984375 4.5 -3.703125 C 4.5 -3.285156 4.648438 -2.96875 4.953125 -2.75 C 5.253906 -2.53125 5.632812 -2.421875 6.09375 -2.421875 Z M 6.09375 -2.421875 "/></g></g></g><g fill="#7faf30" fill-opacity="1"><g transform="translate(92.466221, 22.500002)"><g><path d="M 1.3125 0 L 1.3125 -2.296875 L 7.1875 -9.453125 L 7.1875 -9.53125 L 1.515625 -9.53125 L 1.515625 -12.671875 L 11.984375 -12.671875 L 11.984375 -10.140625 L 6.546875 -3.21875 L 6.546875 -3.140625 L 12.1875 -3.140625 L 12.1875 0 Z M 1.3125 0 "/></g></g></g><g fill="#7faf30" fill-opacity="1"><g transform="translate(105.977687, 22.500002)"><g><path d="M 7.203125 0.234375 C 5.878906 0.234375 4.734375 -0.0234375 3.765625 -0.546875 C 2.804688 -1.066406 2.070312 -1.816406 1.5625 -2.796875 C 1.050781 -3.773438 0.796875 -4.9375 0.796875 -6.28125 C 0.796875 -7.59375 1.050781 -8.738281 1.5625 -9.71875 C 2.082031 -10.695312 2.8125 -11.457031 3.75 -12 C 4.6875 -12.550781 5.796875 -12.828125 7.078125 -12.828125 C 7.972656 -12.828125 8.796875 -12.6875 9.546875 -12.40625 C 10.296875 -12.125 10.941406 -11.707031 11.484375 -11.15625 C 12.023438 -10.613281 12.445312 -9.9375 12.75 -9.125 C 13.050781 -8.320312 13.203125 -7.398438 13.203125 -6.359375 L 13.203125 -5.359375 L 2.203125 -5.359375 L 2.203125 -7.703125 L 9.453125 -7.703125 C 9.453125 -8.128906 9.351562 -8.507812 9.15625 -8.84375 C 8.957031 -9.175781 8.6875 -9.4375 8.34375 -9.625 C 8 -9.820312 7.601562 -9.921875 7.15625 -9.921875 C 6.707031 -9.921875 6.300781 -9.816406 5.9375 -9.609375 C 5.582031 -9.410156 5.300781 -9.140625 5.09375 -8.796875 C 4.882812 -8.453125 4.773438 -8.066406 4.765625 -7.640625 L 4.765625 -5.25 C 4.765625 -4.738281 4.863281 -4.285156 5.0625 -3.890625 C 5.269531 -3.503906 5.5625 -3.203125 5.9375 -2.984375 C 6.3125 -2.773438 6.753906 -2.671875 7.265625 -2.671875 C 7.628906 -2.671875 7.957031 -2.71875 8.25 -2.8125 C 8.539062 -2.914062 8.789062 -3.0625 9 -3.25 C 9.207031 -3.445312 9.363281 -3.6875 9.46875 -3.96875 L 13.171875 -3.859375 C 13.015625 -3.023438 12.675781 -2.300781 12.15625 -1.6875 C 11.632812 -1.082031 10.953125 -0.609375 10.109375 -0.265625 C 9.273438 0.0664062 8.304688 0.234375 7.203125 0.234375 Z M 7.203125 0.234375 "/></g></g></g><g fill="#7faf30" fill-opacity="1"><g transform="translate(119.975532, 22.500002)"><g><path d="M 1.28125 0 L 1.28125 -12.671875 L 5.1875 -12.671875 L 5.1875 -10.359375 L 5.328125 -10.359375 C 5.554688 -11.191406 5.929688 -11.8125 6.453125 -12.21875 C 6.972656 -12.632812 7.582031 -12.84375 8.28125 -12.84375 C 8.46875 -12.84375 8.660156 -12.828125 8.859375 -12.796875 C 9.054688 -12.773438 9.238281 -12.738281 9.40625 -12.6875 L 9.40625 -9.1875 C 9.21875 -9.25 8.96875 -9.300781 8.65625 -9.34375 C 8.34375 -9.382812 8.066406 -9.40625 7.828125 -9.40625 C 7.347656 -9.40625 6.914062 -9.296875 6.53125 -9.078125 C 6.15625 -8.867188 5.859375 -8.578125 5.640625 -8.203125 C 5.421875 -7.828125 5.3125 -7.382812 5.3125 -6.875 L 5.3125 0 Z M 1.28125 0 "/></g></g></g><g fill="#7faf30" fill-opacity="1"><g transform="translate(129.752588, 22.500002)"><g><path d="M 3.546875 0.234375 C 2.953125 0.234375 2.441406 0.0234375 2.015625 -0.390625 C 1.597656 -0.804688 1.394531 -1.3125 1.40625 -1.90625 C 1.394531 -2.488281 1.597656 -2.988281 2.015625 -3.40625 C 2.441406 -3.820312 2.953125 -4.03125 3.546875 -4.03125 C 4.109375 -4.03125 4.601562 -3.820312 5.03125 -3.40625 C 5.46875 -2.988281 5.6875 -2.488281 5.6875 -1.90625 C 5.6875 -1.507812 5.582031 -1.148438 5.375 -0.828125 C 5.175781 -0.503906 4.914062 -0.242188 4.59375 -0.046875 C 4.269531 0.140625 3.921875 0.234375 3.546875 0.234375 Z M 3.546875 0.234375 "/></g></g></g></svg>