<svg xmlns="http://www.w3.org/2000/svg" xmlns:xlink="http://www.w3.org/1999/xlink" width="500" zoomAndPan="magnify" viewBox="0 0 375 374.999991" height="500" preserveAspectRatio="xMidYMid meet" version="1.0"><path fill="#7faf30" d="M 227.683594 169.378906 L 224.867188 169.566406 C 224.585938 165.152344 224.210938 160.367188 224.117188 155.671875 L 226.933594 155.671875 C 227.121094 160.179688 227.402344 164.964844 227.683594 169.378906 Z M 23.660156 281.296875 C 22.347656 284.582031 21.125 288.058594 20 291.53125 C 19.71875 292.5625 19.339844 293.503906 19.058594 294.535156 L 21.78125 295.285156 C 22.0625 294.347656 22.347656 293.316406 22.628906 292.375 C 23.660156 288.996094 24.882812 285.523438 26.195312 282.328125 L 23.566406 281.296875 Z M 228.625 185.152344 C 228.53125 182.992188 228.34375 180.738281 228.25 178.582031 L 225.433594 178.769531 C 225.621094 180.925781 225.714844 183.085938 225.808594 185.246094 C 225.902344 187.78125 225.996094 190.222656 225.996094 192.476562 L 228.8125 192.476562 C 228.8125 190.035156 228.71875 187.6875 228.625 185.058594 Z M 134.828125 226.746094 C 130.882812 224.304688 126.472656 222.332031 121.871094 220.925781 L 121.023438 223.648438 C 125.4375 224.960938 129.570312 226.839844 133.324219 229.1875 Z M 355.941406 47.414062 L 358.476562 48.636719 C 360.539062 44.316406 362.230469 39.902344 363.359375 35.304688 L 360.632812 34.644531 C 359.601562 38.964844 358.003906 43.285156 356.035156 47.414062 Z M 150.976562 243.742188 L 152.855469 241.675781 C 152.101562 241.019531 151.445312 240.359375 150.695312 239.703125 C 148.066406 237.261719 145.25 234.726562 142.433594 232.378906 L 140.648438 234.539062 C 143.371094 236.792969 146.09375 239.328125 148.722656 241.769531 C 149.472656 242.425781 150.132812 243.082031 150.882812 243.742188 Z M 227.777344 133.699219 C 227.777344 133.417969 227.777344 133.042969 227.871094 132.761719 L 225.054688 132.292969 C 225.054688 132.574219 224.960938 132.949219 224.960938 133.230469 C 224.398438 137.363281 224.023438 141.585938 223.929688 146.28125 L 226.746094 146.28125 C 226.839844 141.773438 227.121094 137.644531 227.683594 133.605469 Z M 353.78125 56.804688 L 351.433594 55.207031 C 348.898438 58.964844 345.988281 62.53125 342.703125 65.628906 L 344.671875 67.695312 C 348.054688 64.410156 351.058594 60.746094 353.78125 56.804688 Z M 337.445312 73.703125 L 335.753906 71.449219 C 331.996094 74.171875 328.054688 76.332031 323.921875 78.023438 L 324.957031 80.652344 C 329.273438 78.867188 333.40625 76.613281 337.351562 73.796875 Z M 316.035156 83.375 L 315.472656 80.652344 C 311.53125 81.496094 307.210938 82.0625 301.953125 82.34375 L 302.140625 85.160156 C 307.585938 84.878906 312 84.3125 316.128906 83.375 Z M 89.757812 222.425781 L 89.195312 219.703125 C 84.59375 220.644531 79.996094 221.957031 75.675781 223.742188 L 76.707031 226.371094 C 80.933594 224.679688 85.347656 223.367188 89.757812 222.519531 Z M 228.71875 201.960938 L 225.902344 201.960938 C 225.621094 206.746094 225.148438 211.160156 224.398438 215.386719 L 227.121094 215.949219 C 227.96875 211.628906 228.4375 207.027344 228.71875 201.960938 Z M 249 94.265625 L 247.402344 92.011719 C 243.648438 94.640625 240.265625 98.023438 237.261719 101.964844 L 239.515625 103.65625 C 242.332031 99.898438 245.523438 96.800781 249.09375 94.265625 Z M 15.304688 326.832031 L 12.488281 326.457031 C 11.925781 330.777344 11.359375 335.285156 10.890625 340.261719 L 13.707031 340.542969 C 14.175781 335.566406 14.742188 331.058594 15.304688 326.832031 Z M 182.992188 257.355469 C 181.867188 257.355469 180.738281 257.355469 179.613281 257.167969 L 179.332031 259.984375 C 180.550781 260.078125 181.773438 260.171875 182.992188 260.171875 C 186.46875 260.171875 190.035156 259.609375 193.601562 258.480469 L 192.757812 255.757812 C 189.472656 256.792969 186.183594 257.261719 182.992188 257.261719 Z M 227.027344 123.183594 L 229.75 123.9375 C 230.972656 119.429688 232.660156 115.203125 234.632812 111.261719 L 232.097656 109.945312 C 230.03125 113.984375 228.25 118.394531 226.933594 123.089844 Z M 67.132812 227.777344 C 65.816406 228.53125 64.503906 229.28125 63.1875 230.125 C 60.558594 231.816406 57.929688 233.695312 55.488281 235.761719 L 57.273438 237.917969 C 59.621094 235.949219 62.15625 234.164062 64.691406 232.472656 C 65.910156 231.722656 67.226562 230.878906 68.445312 230.21875 L 67.039062 227.777344 Z M 159.707031 247.777344 L 157.925781 249.9375 C 162.242188 253.410156 166.09375 255.757812 169.941406 257.449219 L 171.070312 254.820312 C 167.40625 253.222656 163.746094 250.96875 159.707031 247.683594 Z M 269.371094 83.84375 C 264.207031 84.59375 259.703125 85.722656 255.664062 87.414062 L 256.792969 90.042969 C 260.640625 88.445312 264.867188 87.320312 269.84375 86.660156 L 269.464844 83.84375 Z M 219.890625 236.511719 C 221.863281 233.035156 223.460938 229.1875 224.773438 225.148438 L 222.050781 224.304688 C 220.832031 228.15625 219.234375 231.816406 217.355469 235.195312 C 217.074219 235.664062 216.792969 236.136719 216.511719 236.605469 L 218.953125 238.105469 C 219.234375 237.636719 219.609375 237.074219 219.890625 236.605469 Z M 292.65625 85.535156 L 292.65625 82.71875 C 292.65625 82.71875 289.839844 82.71875 289.839844 82.71875 C 286.179688 82.71875 282.328125 82.71875 278.667969 83 L 278.667969 85.816406 C 282.421875 85.628906 286.273438 85.628906 289.839844 85.535156 Z M 50.605469 244.023438 L 48.636719 242.050781 C 45.441406 245.335938 42.34375 248.90625 39.433594 252.753906 L 41.6875 254.445312 C 44.503906 250.6875 47.507812 247.214844 50.605469 244.117188 Z M 112.667969 218.953125 C 108.066406 218.296875 103.28125 218.109375 98.492188 218.484375 L 98.679688 221.300781 C 103.28125 221.019531 107.878906 221.113281 112.199219 221.769531 L 112.574219 218.953125 Z M 36.523438 261.957031 L 34.175781 260.453125 C 31.734375 264.300781 29.480469 268.433594 27.417969 272.753906 L 29.953125 273.972656 C 31.921875 269.75 34.175781 265.710938 36.523438 261.957031 Z M 200.832031 252.097656 L 202.242188 254.539062 C 206.277344 252.191406 210.035156 249.09375 213.320312 245.523438 L 211.253906 243.648438 C 208.15625 247.027344 204.683594 249.84375 200.832031 252.097656 Z M 19.527344 304.207031 L 16.804688 303.550781 C 15.773438 307.867188 14.835938 312.46875 13.988281 317.257812 L 16.804688 317.726562 C 17.652344 313.03125 18.496094 308.523438 19.527344 304.207031 Z M 11.832031 345.519531 C 6.007812 345.046875 0.9375 349.460938 0.46875 355.28125 C 0 361.105469 4.414062 366.175781 10.234375 366.644531 C 16.054688 367.113281 21.125 362.699219 21.59375 356.878906 C 22.0625 351.058594 17.652344 345.988281 11.832031 345.519531 Z M 362.417969 8.636719 C 356.597656 9.390625 352.464844 14.648438 353.21875 20.46875 C 353.96875 26.289062 359.226562 30.421875 365.046875 29.667969 C 370.867188 28.917969 375 23.660156 374.25 17.839844 C 373.496094 12.019531 368.238281 7.886719 362.417969 8.636719 Z M 362.417969 8.636719 " fill-opacity="1" fill-rule="nonzero"/></svg>